<?xml version="1.0" standalone="no"?>
<!DOCTYPE svg PUBLIC "-//W3C//DTD SVG 20010904//EN"
 "http://www.w3.org/TR/2001/REC-SVG-20010904/DTD/svg10.dtd">
<svg version="1.0" xmlns="http://www.w3.org/2000/svg"
 width="225.000000pt" height="82.000000pt" viewBox="0 0 225.000000 82.000000"
 preserveAspectRatio="xMidYMid meet">

<g transform="translate(0.000000,82.000000) scale(0.100000,-0.100000)"
fill="#000000" stroke="none">
<path d="M1626 674 c-3 -9 -6 -27 -6 -40 l0 -24 -178 0 c-98 0 -321 -3 -494
-7 l-316 -6 -6 21 c-4 12 -15 22 -25 22 -14 0 -20 -11 -24 -52 -7 -57 -58
-171 -109 -245 -18 -27 -67 -91 -110 -144 -78 -96 -86 -109 -68 -109 33 0 145
136 237 290 28 47 67 103 86 125 33 38 36 40 98 40 l64 0 3 -31 c2 -17 -11
-100 -28 -184 -31 -154 -34 -200 -14 -207 17 -6 21 13 44 189 12 90 24 178 26
196 l5 32 108 0 108 0 -5 -182 c-4 -172 -3 -184 15 -207 l20 -25 13 23 c9 17
9 34 2 65 -6 22 -14 105 -18 184 l-7 142 105 0 c58 0 107 -2 110 -5 3 -3 -1
-42 -8 -86 -32 -201 -28 -299 11 -299 18 0 17 -19 18 197 1 100 4 184 7 187 3
3 38 2 78 -1 60 -5 72 -9 72 -24 0 -32 52 -183 87 -254 63 -124 95 -154 109
-100 5 19 -4 38 -41 87 -56 76 -112 191 -121 249 l-7 42 39 -6 c21 -4 64 -7
95 -7 l57 0 23 -61 c60 -161 219 -311 371 -349 80 -20 75 -6 -18 50 -179 109
-302 272 -345 460 -5 24 -15 50 -21 57 -14 18 -35 16 -42 -3z"/>
</g>
</svg>
