<svg version="1.0" xmlns="http://www.w3.org/2000/svg"
 width="225.000000pt" height="134.000000pt" viewBox="0 0 225.000000 134.000000"
 preserveAspectRatio="xMidYMid meet">

<g transform="translate(0.000000,134.000000) scale(0.100000,-0.100000)"
fill="#000000" stroke="none">
<path d="M1626 1194 c-3 -9 -6 -27 -6 -40 l0 -24 -178 0 c-98 0 -321 -3 -494
-7 l-316 -6 -6 21 c-4 12 -15 22 -25 22 -14 0 -20 -11 -24 -52 -7 -57 -58
-171 -109 -245 -18 -27 -67 -91 -110 -144 -78 -96 -86 -109 -68 -109 33 0 145
136 237 290 28 47 67 103 86 125 33 38 36 40 98 40 l64 0 3 -31 c2 -17 -11
-100 -28 -184 -31 -154 -34 -200 -14 -207 17 -6 21 13 44 189 12 90 24 178 26
196 l5 32 108 0 108 0 -5 -182 c-4 -172 -3 -184 15 -207 l20 -25 13 23 c9 17
9 34 2 65 -6 22 -14 105 -18 184 l-7 142 105 0 c58 0 107 -2 110 -5 3 -3 -1
-42 -8 -86 -32 -201 -28 -299 11 -299 18 0 17 -19 18 197 1 100 4 184 7 187 3
3 38 2 78 -1 60 -5 72 -9 72 -24 0 -32 52 -183 87 -254 63 -124 95 -154 109
-100 5 19 -4 38 -41 87 -56 76 -112 191 -121 249 l-7 42 39 -6 c21 -4 64 -7
95 -7 l57 0 23 -61 c60 -161 219 -311 371 -349 80 -20 75 -6 -18 50 -179 109
-302 272 -345 460 -5 24 -15 50 -21 57 -14 18 -35 16 -42 -3z"/>
<path d="M547 493 c-3 -3 -3 -11 0 -19 6 -15 5 -15 -46 -18 -55 -3 -51 -26 4
-26 30 0 44 -4 40 -11 -4 -5 -18 -9 -33 -7 -14 2 -27 -3 -29 -9 -3 -9 7 -13
31 -13 20 0 36 -4 36 -10 0 -14 -45 -23 -75 -16 -19 5 -25 2 -25 -9 0 -13 16
-15 113 -13 68 2 110 7 107 13 -3 5 -25 10 -49 10 -26 0 -46 5 -48 13 -3 8 7
12 31 12 23 0 36 5 36 13 0 9 -9 12 -29 9 -16 -2 -32 1 -35 7 -5 7 8 11 38 11
33 0 46 4 46 14 0 11 -11 14 -40 13 -36 -2 -44 3 -42 25 2 8 -25 18 -31 11z"/>
<path d="M390 450 c0 -33 -4 -40 -19 -40 -19 0 -31 -25 -31 -67 0 -32 18 -29
26 5 14 58 19 43 24 -73 3 -66 9 -119 14 -117 5 1 9 53 8 116 -1 68 2 117 8
121 5 3 10 -1 10 -9 0 -10 6 -13 15 -10 20 8 19 20 -5 44 -11 11 -20 31 -20
45 0 16 -6 25 -15 25 -11 0 -15 -11 -15 -40z"/>
<path d="M1516 481 c-3 -5 -5 -74 -4 -155 1 -113 5 -146 15 -146 10 0 13 33
13 155 0 140 -6 176 -24 146z"/>
<path d="M1937 483 c-2 -5 -3 -48 -3 -97 1 -62 5 -91 14 -93 8 -3 12 10 12 46
0 48 2 51 25 51 14 0 25 5 25 10 0 6 -11 10 -25 10 -22 0 -25 4 -25 40 0 36
-12 53 -23 33z"/>
<path d="M880 415 l0 -65 40 0 c33 0 40 -3 40 -20 0 -18 -7 -20 -71 -20 -44 0
-68 -4 -64 -10 4 -6 65 -10 150 -10 85 0 146 4 150 10 4 6 -21 10 -68 10 -70
0 -75 1 -70 20 4 16 14 20 44 20 22 0 39 5 39 10 0 6 -35 10 -85 10 -78 0 -85
2 -85 20 0 18 7 20 85 20 50 0 85 4 85 10 0 6 -35 10 -85 10 -69 0 -85 3 -85
15 0 12 16 15 85 15 50 0 85 4 85 10 0 6 -38 10 -95 10 l-95 0 0 -65z"/>
<path d="M1370 443 c0 -46 -33 -116 -65 -137 -14 -9 -25 -21 -25 -26 0 -21 24
-9 60 29 l38 39 33 -34 c18 -19 40 -34 48 -34 9 0 -1 17 -27 43 -39 40 -42 46
-42 100 0 31 -4 57 -10 57 -5 0 -10 -17 -10 -37z"/>
<path d="M1720 470 c0 -5 16 -10 35 -10 33 0 35 -2 35 -32 0 -23 -10 -40 -40
-70 -32 -29 -37 -38 -22 -38 10 0 31 13 47 30 l28 29 39 -31 c52 -41 62 -27
11 16 -34 30 -39 39 -35 65 4 28 8 31 38 31 19 0 34 5 34 10 0 6 -35 10 -85
10 -50 0 -85 -4 -85 -10z"/>
<path d="M480 238 c0 -72 3 -88 15 -88 10 0 15 10 15 30 0 30 1 30 55 30 52 0
73 -14 40 -26 -25 -10 -18 -33 8 -26 32 8 37 19 37 97 l0 70 -85 0 -85 0 0
-87z m138 50 c-8 -22 -108 -20 -108 2 0 6 25 10 56 10 40 0 55 -3 52 -12z m-3
-48 c-3 -5 -28 -10 -56 -10 -27 0 -49 5 -49 10 0 6 25 10 56 10 34 0 53 -4 49
-10z"/>
<path d="M1840 283 c-51 -20 -66 -75 -29 -109 32 -29 105 -26 130 5 21 26 19
64 -5 89 -14 15 -74 24 -96 15z m78 -25 c7 -7 12 -24 12 -38 0 -34 -17 -50
-54 -50 -32 0 -66 25 -66 48 0 42 78 70 108 40z"/>
<path d="M922 258 c-27 -14 -38 -49 -23 -77 23 -43 125 -37 148 9 28 56 -55
101 -125 68z m102 -30 c23 -37 -23 -68 -80 -54 -18 5 -24 13 -24 35 0 16 6 32
13 35 25 10 80 1 91 -16z"/>
</g>
</svg>
